<svg width="49" height="24" viewBox="0 0 49 24" fill="none" xmlns="http://www.w3.org/2000/svg">
<path d="M0.992188 6.72656H5.375C6.5 6.72656 7.41406 7.07552 8.11719 7.77344C8.82031 8.46615 9.17188 9.375 9.17188 10.5C9.17188 11.6198 8.8099 12.5286 8.08594 13.2266C7.36719 13.9245 6.4349 14.2734 5.28906 14.2734H3.00781V18H0.992188V6.72656ZM3.00781 8.375V12.6484H4.83594C5.5599 12.6484 6.1224 12.4609 6.52344 12.0859C6.92448 11.7109 7.125 11.1823 7.125 10.5C7.125 9.82292 6.92448 9.29948 6.52344 8.92969C6.1276 8.5599 5.56771 8.375 4.84375 8.375H3.00781ZM10.5 18V9.71875H12.4453V18H10.5ZM12.2344 8.32812C12.026 8.53125 11.7708 8.63281 11.4688 8.63281C11.1667 8.63281 10.9115 8.53125 10.7031 8.32812C10.4948 8.11979 10.3906 7.86979 10.3906 7.57812C10.3906 7.28125 10.4948 7.03125 10.7031 6.82812C10.9115 6.61979 11.1667 6.51562 11.4688 6.51562C11.7708 6.51562 12.026 6.61979 12.2344 6.82812C12.4479 7.03125 12.5547 7.28125 12.5547 7.57812C12.5547 7.86979 12.4479 8.11979 12.2344 8.32812ZM16.1016 13.1719L19.2188 9.71875H21.4609L18.1484 13.2812L21.6016 18H19.3516L16.7344 14.4609L16.0781 15.125V18H14.1328V6.72656H16.0781V13.1719H16.1016ZM25.3672 16.6641C25.9245 16.6641 26.3932 16.5 26.7734 16.1719C27.1589 15.8385 27.3516 15.4245 27.3516 14.9297V14.2969L25.4375 14.4141C24.9688 14.4453 24.6042 14.5625 24.3438 14.7656C24.0885 14.9635 23.9609 15.2266 23.9609 15.5547C23.9609 15.8932 24.0885 16.1641 24.3438 16.3672C24.6042 16.5651 24.9453 16.6641 25.3672 16.6641ZM24.7812 18.1328C23.974 18.1328 23.3099 17.901 22.7891 17.4375C22.2734 16.974 22.0156 16.3724 22.0156 15.6328C22.0156 14.8984 22.2865 14.3177 22.8281 13.8906C23.375 13.4635 24.1536 13.2188 25.1641 13.1562L27.3516 13.0312V12.4375C27.3516 12.0052 27.2135 11.6693 26.9375 11.4297C26.6667 11.1901 26.2891 11.0703 25.8047 11.0703C25.3516 11.0703 24.9818 11.1719 24.6953 11.375C24.4089 11.5781 24.2344 11.8542 24.1719 12.2031H22.3672C22.4089 11.4167 22.7448 10.7786 23.375 10.2891C24.0104 9.79427 24.8464 9.54688 25.8828 9.54688C26.9089 9.54688 27.7292 9.79688 28.3438 10.2969C28.9635 10.7969 29.2734 11.4635 29.2734 12.2969V18H27.3984V16.6797H27.3594C27.125 17.1224 26.7708 17.4766 26.2969 17.7422C25.8229 18.0026 25.3177 18.1328 24.7812 18.1328ZM33.9375 18.1328C32.8906 18.1328 32.0547 17.7474 31.4297 16.9766C30.8099 16.2057 30.5 15.1641 30.5 13.8516C30.5 12.5443 30.8099 11.5052 31.4297 10.7344C32.0547 9.96354 32.8906 9.57812 33.9375 9.57812C34.5208 9.57812 35.0365 9.71615 35.4844 9.99219C35.9375 10.2682 36.276 10.6406 36.5 11.1094H36.5469V6.72656H38.4922V18H36.5859V16.5859H36.5547C36.3255 17.0599 35.9792 17.4375 35.5156 17.7188C35.0573 17.9948 34.5312 18.1328 33.9375 18.1328ZM34.5234 11.1797C33.8984 11.1797 33.4036 11.4219 33.0391 11.9062C32.6745 12.3854 32.4922 13.0365 32.4922 13.8594C32.4922 14.6875 32.6719 15.3411 33.0312 15.8203C33.3958 16.2995 33.8932 16.5391 34.5234 16.5391C35.138 16.5391 35.6302 16.2969 36 15.8125C36.3698 15.3281 36.5547 14.6771 36.5547 13.8594C36.5547 13.0469 36.3698 12.3984 36 11.9141C35.6302 11.4245 35.138 11.1797 34.5234 11.1797ZM47.4688 9.71875V18H45.5938V16.5625H45.5547C45.0964 17.6198 44.2526 18.1484 43.0234 18.1484C42.1224 18.1484 41.4062 17.875 40.875 17.3281C40.349 16.776 40.0859 16.0234 40.0859 15.0703V9.71875H42.0312V14.6797C42.0312 15.2734 42.1719 15.7266 42.4531 16.0391C42.7396 16.3516 43.1562 16.5078 43.7031 16.5078C44.2604 16.5078 44.7031 16.3255 45.0312 15.9609C45.3594 15.5964 45.5234 15.112 45.5234 14.5078V9.71875H47.4688Z" fill="white"/>
</svg>
